PathFileType	4	(X/Y/Z)	C:/Users/beibeiliu/ov580/test_trc/User3\sequence.40_training_dense_left.trc
DataRate	CameraRate	NumFrames	NumMarkers	Units	OrigDataRate	OrigDataStartFrame	OrigNumFrames
120	120	15	19	mm	120	108	287
Frame#	Time	ThumbCMC			ThumbMCP			ThumbIP			ThumbTip			IndexMCP			IndexPIP			IndexTip			MiddleMCP			MiddlePIP			MiddleTip			RingMCP			RingPIP			RingTip			PinkyMCP			PinkyPIP			PinkyTip			BackHand1			BackHand2			BackHand3	
		X0	Y0	Z0	X1	Y1	Z1	X2	Y2	Z2	X3	Y3	Z3	X4	Y4	Z4	X5	Y5	Z5	X6	Y6	Z6	X7	Y7	Z7	X8	Y8	Z8	X9	Y9	Z9	X10	Y10	Z10	X11	Y11	Z11	X12	Y12	Z12	X13	Y13	Z13	X14	Y14	Z14	X15	Y15	Z15	X16	Y16	Z16	X17	Y17	Z17	X18	Y18	Z18	
107	0.891667	-183.553	-3.13671	33.1851	-154.076	-3.29078	4.40848	-136.704	-12.5874	-15.4839	-125.124	-31.3064	-32.1641	-197.955	-8.49731	-42.1079	-178.132	-4.39678	-66.4235	-149.285	1.70135	-72.7326	-201.592	-35.3922	-49.3318	-191.189	-30.1044	-77.7617	-167.809	-25.2432	-97.2996	-185.947	-50.5638	-39.9462	-168.65	-49.3277	-62.8527	-139.516	-34.7742	-67.9891	-170.395	-62.2199	-26.7099	-152.161	-56.247	-40.7729	-127.981	-44.2834	-45.7568	-204.302	-58.6267	10.2426	-207.887	-58.3897	42.6912	-217.8	-25.1865	23.3077	
108	0.9	-184.56	-2.18312	32.2166	-155.906	-3.87526	6.0204	-135.949	-10.1805	-16.6078	-124.2	-27.1862	-29.4731	-198.316	-8.76012	-43.3024	-179.42	-3.57811	-67.4905	-150.059	6.82754	-75.1044	-203.068	-33.4651	-49.9521	-190.441	-30.2269	-79.2098	-166.135	-22.0447	-100.078	-185.819	-51.7038	-43.1071	-169.119	-49.7642	-63.4189	-139.009	-36.4776	-67.6514	-168.914	-64.9145	-26.3375	-148.15	-60.0222	-42.5997	-129.707	-48.0161	-48.0132	-205.906	-56.1947	10.0593	-209.659	-57.9114	39.7959	-215.096	-26.0798	21.7955	
109	0.908333	-184.709	-3.4285	29.6133	-154.49	1.19875	5.95318	-136.449	-10.0143	-15.3215	-124.578	-27.7666	-32.0919	-197.005	-10.591	-44.3643	-182.443	-2.87693	-65.5196	-156.54	5.86905	-75.2431	-202.192	-34.1495	-45.0904	-192.298	-29.6842	-77.9304	-167.936	-24.8237	-97.4381	-187.112	-51.1885	-40.8305	-166.503	-47.0505	-63.9117	-140.129	-39.2608	-66.6998	-169.279	-67.9414	-26.9024	-151.787	-59.6806	-43.2905	-127.703	-52.4321	-49.2051	-205.031	-57.6884	13.6776	-210.646	-58.2672	42.6464	-217.571	-25.5957	25.4227	
110	0.916667	-185.218	-1.44491	34.0918	-154.291	-0.278622	4.45635	-137.181	-11.211	-16.7003	-128.357	-29.6817	-29.9035	-199.022	-10.2162	-42.5914	-180.162	-4.52774	-66.9972	-158.316	4.77059	-76.5157	-202.206	-33.4143	-48.1182	-190.441	-30.8666	-77.3108	-162.746	-20.7023	-99.5619	-186.719	-49.9265	-39.8798	-165.98	-46.9322	-61.4938	-135.42	-37.5258	-61.1861	-171.612	-65.9559	-25.2518	-153.342	-61.5672	-41.8688	-131.287	-51.0754	-47.1607	-204.966	-59.0683	13.7045	-209.336	-60.449	43.3363	-218.506	-25.4325	25.6055	
111	0.925	-185.343	-3.49921	33.1067	-156.16	-2.295	10.7027	-138.119	-11.3288	-13.7779	-126.034	-28.6476	-29.1218	-199.314	-9.84527	-42.1807	-183.504	-4.86538	-66.3306	-155.304	3.35341	-76.7808	-202.574	-32.749	-48.2219	-189.077	-31.6533	-74.6827	-159.402	-22.809	-95.5798	-182.539	-51.9872	-39.3238	-160.045	-47.9979	-58.3499	-131.521	-35.8621	-51.7893	-172.544	-69.2938	-22.0541	-154.274	-64.6512	-41.5271	-126.344	-50.4776	-46.3774	-205.723	-56.7383	8.79011	-210.023	-58.4209	42.3459	-216.509	-28.7584	26.7873	
112	0.933333	-184.753	-0.979251	34.6973	-154.286	-2.7914	7.86963	-137.234	-14.0496	-13.7222	-125.237	-34.105	-28.2815	-199.784	-9.36092	-41.411	-182.515	-1.30349	-68.1875	-154.076	3.67884	-78.7356	-199.861	-37.7248	-44.9325	-189.355	-29.3748	-74.0494	-159.809	-22.2609	-92.1111	-180.079	-50.7835	-40.291	-156.468	-46.087	-55.65	-129.309	-33.16	-45.7012	-171.794	-66.6768	-25.898	-155.986	-61.6365	-40.2797	-128.542	-48.1036	-42.024	-205.521	-58.4887	13.2865	-209.837	-58.0451	40.2756	-217.811	-27.365	24.0848	
113	0.941667	-183.455	-1.4675	31.3734	-154.636	-2.71132	9.92304	-134.744	-14.405	-13.929	-125.321	-37.4746	-27.6749	-199.231	-11.2584	-40.4033	-182.15	-5.18081	-69.2168	-156.226	1.72007	-80.4863	-198.921	-39.4153	-49.5329	-188.755	-31.4863	-74.3304	-153.06	-25.4459	-92.6398	-179.044	-50.494	-40.656	-155.244	-44.6749	-53.9032	-124.381	-33.3392	-41.0746	-171.936	-68.3419	-22.4455	-150.465	-63.2793	-41.5161	-125.082	-50.024	-41.2062	-206.87	-55.3999	10.3803	-209.252	-61.6907	42.4571	-216.755	-26.2527	26.9556	
114	0.95	-184.59	-4.03435	35.6559	-154.201	-4.87367	6.37897	-135.902	-16.33	-15.8353	-126.725	-36.0743	-24.4659	-199.999	-11.7396	-41.344	-182.652	-5.41744	-67.9589	-159.554	-2.86353	-79.5921	-200.432	-35.5226	-45.7574	-184.567	-34.2695	-76.7299	-160.08	-25.1287	-92.3564	-177.707	-53.6311	-40.811	-155.747	-46.8965	-53.6523	-127.076	-34.3873	-44.2874	-172.891	-67.107	-20.0862	-154.348	-62.512	-40.2019	-127.258	-53.2388	-41.9695	-204.279	-58.0412	15.3595	-207.162	-62.0737	40.045	-216.675	-29.6456	27.172	
115	0.958333	-183.747	-5.31995	32.6798	-155.074	-3.75108	11.1693	-133.435	-13.3762	-15.4251	-124.402	-32.3261	-26.7917	-199.116	-11.3492	-40.488	-180.985	-4.75991	-68.4538	-159.279	1.54268	-78.6746	-199.395	-39.8518	-46.4155	-184.313	-37.1779	-76.6346	-160.449	-26.5753	-92.5501	-181.153	-51.2507	-36.549	-152.705	-45.6854	-56.2502	-127.668	-33.8118	-46.2159	-171.271	-69.3462	-23.9349	-152.183	-67.1204	-39.7049	-128.698	-52.07	-46.1726	-203.677	-58.7235	12.5393	-208.648	-59.5423	41.2041	-215.952	-24.7425	25.1761	
116	0.966667	-183.837	-3.45253	35.3684	-153.325	-2.74423	6.76129	-133.54	-8.78524	-12.4484	-123.778	-29.5737	-27.5548	-196.652	-12.1148	-39.7896	-181.476	-7.09001	-65.1729	-155.214	1.71411	-77.5732	-199.892	-39.1588	-44.4255	-188.298	-33.2264	-76.1595	-159.55	-28.8587	-94.3246	-181.814	-53.6337	-36.7728	-157.238	-46.6733	-58.1702	-128.586	-38.0766	-51.8176	-172.041	-67.9871	-23.7807	-155.093	-70.2984	-40.3976	-131.299	-60.9016	-51.2219	-206.955	-55.759	11.9514	-208.899	-62.589	41.4677	-217.235	-25.8435	27.4865	
117	0.975	-182.175	-2.16092	35.0857	-151.441	0.594041	7.04073	-134.328	-6.94887	-12.3167	-122.686	-24.0126	-27.886	-195.431	-12.3945	-42.7303	-178.533	-2.82762	-66.3039	-152.344	2.26297	-76.8985	-199.908	-38.1936	-44.6699	-187.629	-35.7774	-73.9315	-160.762	-29.3127	-93.2227	-182.886	-50.3672	-38.3195	-162.922	-47.7513	-58.2503	-129.827	-38.2706	-53.4705	-172.693	-71.822	-20.4764	-156.35	-71.4834	-41.3906	-135.662	-63.7725	-56.339	-205.436	-56.6567	10.114	-208.377	-56.9671	44.6816	-214.663	-28.8018	24.996	
118	0.983333	-182.086	-5.00126	32.7016	-153.031	-2.2249	5.87421	-136.502	-10.3415	-15.3363	-120.379	-22.3346	-31.8152	-197.089	-9.06807	-42.2832	-178.537	-1.95039	-67.2678	-153.879	1.43258	-76.7505	-199.693	-34.2793	-45.2577	-187.507	-29.935	-73.795	-156.124	-25.3262	-92.4875	-181.225	-54.281	-41.2048	-160.023	-51.1264	-57.7646	-127.11	-38.9317	-51.2528	-173.942	-71.3175	-21.4977	-160	-73.1993	-40.5184	-140.426	-65.6956	-57.6293	-206.882	-58.4979	13.213	-209.234	-59.191	44.1398	-214.988	-23.8747	28.3809	
119	0.991667	-182.188	-5.00997	31.8934	-153.205	-0.566638	5.59857	-135.067	-9.12164	-17.6329	-122.598	-25.455	-32.1594	-197.814	-8.17804	-39.2347	-181.568	-2.20584	-65.6595	-153.082	2.03064	-77.3347	-198.394	-36.0766	-47.7222	-181.125	-30.1633	-76.5728	-148.443	-23.2043	-90.537	-182.431	-53.1135	-40.3327	-158.138	-47.1682	-57.5449	-128.554	-40.2286	-48.5297	-174.976	-70.015	-23.1662	-159.276	-72.047	-41.7486	-139.837	-63.3501	-57.3529	-208.08	-58.0766	9.45822	-209.49	-60.1946	41.4314	-216.075	-27.2866	28.0274	
120	1	-181.897	-1.47911	33.7113	-154.472	-3.37023	10.1652	-134.889	-11.9518	-14.2733	-122.873	-24.1967	-27.653	-195.998	-10.8186	-43.5214	-179.85	-5.28912	-65.3563	-153.751	1.98405	-77.3671	-196.268	-36.4201	-44.6867	-177.601	-29.1291	-74.2955	-145.973	-24.2191	-83.6527	-183.543	-51.1676	-35.9972	-158.823	-48.8255	-55.5954	-125.303	-39.8843	-44.3662	-174.854	-67.8487	-24.9751	-158.869	-67.972	-44.3586	-141.744	-66.6101	-55.2511	-207.482	-58.2116	14.0815	-209.064	-59.3252	42.7275	-215.521	-22.5122	23.4298	
121	1.00833	-180.503	-0.617901	32.42	-152.251	-2.41446	11.0613	-133.446	-10.4898	-14.1914	-119.98	-27.366	-32.4414	-194.023	-13.436	-42.9476	-178.092	-7.32804	-65.9852	-147.81	-3.02507	-76.9957	-193.23	-35.9982	-49.5075	-177.796	-28.3826	-72.2603	-142.969	-26.3677	-82.1053	-179.921	-55.7412	-36.7554	-154.542	-52.8443	-54.3653	-125.727	-41.8967	-43.6901	-175.069	-71.4397	-21.2144	-159.505	-72.4332	-41.5976	-138.198	-67.4591	-53.8289	-205.975	-55.9377	10.6054	-209.048	-58.963	44.3477	-215.972	-24.3805	25.689	
